<?xml version="1.0" standalone="no"?>
<!DOCTYPE svg PUBLIC "-//W3C//DTD SVG 20010904//EN"
 "http://www.w3.org/TR/2001/REC-SVG-20010904/DTD/svg10.dtd">
<svg version="1.0" xmlns="http://www.w3.org/2000/svg"
 width="225.000000pt" height="225.000000pt" viewBox="0 0 225.000000 225.000000"
 preserveAspectRatio="xMidYMid meet">

<g transform="translate(0.000000,225.000000) scale(0.100000,-0.100000)"
fill="#000000" stroke="none">
<path d="M1423 1715 c-80 -56 -96 -226 -28 -299 70 -75 185 17 185 149 0 86
-50 165 -104 165 -17 0 -41 -7 -53 -15z"/>
<path d="M1725 1678 c-95 -89 -66 -308 40 -308 41 0 90 39 110 87 19 45 19
143 1 187 -30 72 -95 86 -151 34z"/>
<path d="M446 1505 c-9 -25 11 -65 34 -65 15 0 20 7 20 28 0 44 -40 72 -54 37z"/>
<path d="M340 1486 c0 -28 35 -57 56 -49 20 7 17 37 -4 56 -28 25 -52 22 -52
-7z"/>
<path d="M1129 1495 c-29 -16 -59 -79 -59 -125 0 -37 33 -126 56 -151 15 -17
16 -26 6 -67 -6 -26 -15 -60 -21 -75 l-11 -28 -26 20 c-40 31 -85 27 -123 -11
-17 -17 -31 -35 -31 -40 0 -17 -28 -7 -33 12 -6 25 -49 44 -80 36 -18 -4 -27
-15 -32 -36 -7 -34 -12 -35 -39 -15 -32 24 -64 18 -85 -15 l-18 -31 -6 53 c-8
64 -32 88 -89 88 -76 0 -92 -25 -64 -105 19 -53 24 -117 10 -122 -7 -2 -14 17
-17 46 -15 128 -84 161 -205 100 -97 -48 -179 -162 -203 -283 -11 -50 -9 -58
12 -97 30 -53 88 -87 128 -73 33 12 39 46 12 76 -48 51 -10 210 67 282 l31 29
12 -29 c17 -44 29 -157 18 -169 -5 -5 -28 -16 -52 -25 -32 -12 -43 -21 -45
-41 -4 -34 24 -57 73 -61 l40 -3 6 -62 c7 -78 19 -93 75 -93 50 0 90 30 79 58
-11 29 -27 172 -21 188 11 28 26 4 26 -41 0 -48 15 -95 33 -107 7 -4 29 -8 49
-8 44 0 83 31 73 58 -4 9 -9 38 -12 63 l-5 46 31 -5 c20 -3 41 2 59 14 18 13
40 18 69 15 35 -2 46 2 67 24 20 22 28 25 45 16 30 -17 70 -13 106 9 27 17 36
18 63 8 24 -10 39 -10 62 -1 21 8 40 9 59 2 18 -6 37 -6 54 0 18 7 36 7 57 -1
23 -7 38 -7 56 1 19 8 32 7 59 -6 30 -14 41 -15 70 -4 29 10 38 10 60 -5 15
-10 36 -14 53 -11 17 3 34 -1 45 -11 11 -10 36 -17 63 -17 32 0 48 -5 55 -17
13 -23 91 -34 129 -18 17 7 38 23 48 35 9 12 31 25 47 29 40 10 65 34 65 63 0
29 -23 39 -56 24 -22 -10 -26 -8 -36 14 -9 21 -7 29 21 61 56 63 63 112 19
135 -26 14 -84 3 -119 -22 -33 -24 -35 -24 -69 1 -22 15 -32 36 -45 91 -21 84
-68 140 -133 160 -66 19 -105 5 -175 -62 -34 -32 -66 -59 -72 -59 -6 0 -16 9
-23 21 -7 11 -29 27 -48 35 -30 13 -34 19 -34 52 0 61 -20 112 -58 153 -42 45
-84 56 -123 34z m95 -274 c17 -19 16 -26 -28 -168 -25 -82 -46 -155 -46 -162
0 -8 13 3 30 24 32 41 83 165 107 262 17 69 35 80 68 43 17 -19 16 -25 -38
-172 -30 -84 -53 -155 -50 -158 9 -9 55 55 90 128 19 39 39 72 43 72 4 0 15
-9 25 -20 17 -19 17 -22 -19 -101 -20 -45 -34 -84 -31 -87 13 -14 118 122 153
201 2 4 -5 7 -15 7 -11 0 -24 5 -31 12 -7 7 -24 12 -38 13 -15 0 -32 8 -38 17
-8 14 -5 22 14 43 13 14 31 25 41 25 23 0 41 -24 33 -44 -4 -11 0 -16 15 -17
12 -1 26 -2 33 -3 6 -1 18 18 26 42 16 48 29 52 60 19 15 -16 18 -27 12 -37
-15 -23 -12 -27 22 -34 32 -6 58 -23 58 -36 0 -5 -26 -6 -57 -3 l-58 5 -58
-111 c-32 -61 -54 -111 -48 -111 11 0 50 38 119 119 62 70 96 80 131 36 18
-24 20 -24 29 -8 10 17 11 17 31 -1 12 -11 21 -22 21 -26 0 -4 -22 -42 -50
-84 -27 -42 -46 -76 -42 -76 11 0 53 30 100 71 33 28 42 43 42 68 0 66 52 118
112 109 39 -5 35 -41 -11 -90 -39 -43 -39 -44 -29 -91 10 -50 19 -55 63 -35
14 6 28 8 33 4 11 -11 -28 -36 -57 -36 -15 0 -34 -12 -50 -30 -44 -51 -131
-58 -131 -11 0 22 35 51 61 51 16 0 29 34 21 58 -2 7 -29 -8 -67 -37 -35 -27
-73 -52 -85 -56 -25 -8 -70 18 -70 41 0 14 -2 13 -22 0 -31 -22 -54 -20 -75 7
l-17 24 -33 -20 c-29 -17 -38 -18 -63 -7 -17 7 -30 18 -30 26 0 10 -10 7 -36
-8 -35 -21 -38 -21 -66 -5 -27 15 -32 15 -59 2 -30 -16 -69 -7 -69 16 0 6 -14
1 -30 -11 -36 -26 -71 -23 -85 6 -11 21 -11 21 -48 -12 -44 -40 -75 -43 -114
-10 l-28 24 -20 -36 c-25 -45 -65 -55 -88 -22 -15 21 -15 21 -33 -10 -21 -35
-53 -47 -83 -30 -25 13 -26 40 -9 153 9 61 15 77 29 77 34 0 42 -25 30 -93 -6
-35 -11 -77 -11 -93 l0 -29 23 35 c36 53 57 115 57 166 0 50 15 63 50 44 16
-9 20 -18 16 -43 -13 -83 -17 -159 -8 -153 5 3 22 36 38 73 48 116 103 175
143 153 12 -6 28 -21 37 -35 14 -21 14 -26 0 -53 -19 -37 -62 -72 -87 -72 -14
0 -19 -7 -19 -25 0 -16 6 -25 15 -25 24 0 102 77 124 123 18 37 49 145 66 230
6 32 34 36 59 8z m-646 -144 c6 -7 14 -51 18 -99 4 -59 11 -89 20 -92 16 -6
19 -63 4 -68 -7 -2 -7 -29 1 -83 18 -123 19 -120 -20 -123 -18 -2 -37 0 -42 5
-5 5 -14 47 -20 93 -5 47 -12 86 -14 88 -2 2 -19 -7 -39 -20 l-36 -23 6 -60
c3 -33 10 -82 15 -108 5 -27 7 -53 3 -58 -3 -5 -21 -9 -40 -9 -43 0 -54 24
-54 116 0 59 -9 79 -25 54 -9 -14 -68 -13 -83 2 -16 16 -15 28 3 28 9 0 34 9
55 20 36 18 40 24 40 58 0 50 -27 171 -41 188 -18 22 -36 17 -78 -21 -85 -77
-127 -260 -73 -318 30 -32 13 -43 -32 -22 -52 25 -70 58 -63 120 18 173 228
356 315 275 25 -24 31 -42 40 -134 l7 -66 38 25 c27 19 37 33 37 53 0 24 -21
127 -36 175 -5 14 1 17 39 17 25 0 49 -6 55 -13z"/>
<path d="M1967 1031 c-37 -45 -34 -63 4 -24 17 17 30 36 27 43 -2 8 -14 0 -31
-19z"/>
<path d="M1000 1008 c-11 -18 -20 -37 -20 -43 1 -14 50 47 50 63 0 20 -9 14
-30 -20z"/>
<path d="M1677 951 c-38 -42 -61 -80 -54 -87 6 -6 127 105 127 117 0 22 -41 5
-73 -30z"/>
<path d="M1854 805 c-10 -8 -14 -15 -8 -15 6 0 17 7 24 15 16 19 9 19 -16 0z"/>
<path d="M2035 1448 c-93 -51 -151 -190 -112 -268 41 -81 158 -48 211 58 31
62 38 107 26 153 -17 60 -73 86 -125 57z"/>
<path d="M275 1440 c-19 -31 33 -82 61 -59 19 15 18 25 -6 49 -22 22 -45 26
-55 10z"/>
<path d="M780 1405 c-19 -22 -8 -70 15 -70 16 0 21 8 23 36 3 40 -18 59 -38
34z"/>
<path d="M398 1400 c-15 -9 -17 -22 -13 -87 3 -42 9 -81 14 -86 18 -18 65 -3
79 26 7 15 26 34 42 42 40 21 55 51 41 81 -9 21 -17 24 -58 22 -27 -1 -57 2
-68 5 -11 4 -28 2 -37 -3z"/>
<path d="M684 1373 c-12 -47 26 -81 46 -42 9 16 9 28 1 45 -14 32 -39 30 -47
-3z"/>
<path d="M862 1340 c-16 -27 -15 -49 3 -56 23 -9 45 15 45 47 0 35 -28 40 -48
9z"/>
<path d="M271 1341 c-20 -13 -4 -50 24 -57 48 -12 64 34 20 54 -30 14 -27 14
-44 3z"/>
<path d="M616 1304 c-8 -21 19 -64 40 -64 21 0 29 27 16 56 -13 27 -47 32 -56
8z"/>
<path d="M746 1284 c-9 -8 -16 -23 -16 -33 0 -10 -11 -28 -25 -41 -45 -43 -24
-100 32 -85 16 4 53 10 83 13 48 6 57 11 69 36 13 28 12 31 -9 45 -13 9 -37
31 -55 49 -35 35 -56 40 -79 16z"/>
</g>
</svg>
